<mxfile host="app.diagrams.net" modified="2022-03-07T06:28:18.850Z" agent="5.0 (Windows NT 10.0; Win64; x64) AppleWebKit/537.36 (KHTML, like Gecko) Chrome/98.0.4758.102 Safari/537.36 Edg/98.0.1108.62" etag="sOyIW2aVUrnaOSTg8wpt" version="16.6.6" type="github">
  <diagram id="tq4goBL61UNHZxpQkC1M" name="Page-1">
    <mxGraphModel dx="3903" dy="794" grid="1" gridSize="10" guides="1" tooltips="1" connect="1" arrows="1" fold="1" page="1" pageScale="1" pageWidth="827" pageHeight="1169" math="0" shadow="0">
      <root>
        <mxCell id="0" />
        <mxCell id="1" parent="0" />
        <mxCell id="Xze04izMPhHI0RxyKO2f-1" value="" style="ellipse;whiteSpace=wrap;html=1;" vertex="1" parent="1">
          <mxGeometry x="-170" width="120" height="80" as="geometry" />
        </mxCell>
        <mxCell id="Xze04izMPhHI0RxyKO2f-2" value="Java通信过程" style="text;html=1;strokeColor=#3700CC;fillColor=#6a00ff;align=center;verticalAlign=middle;whiteSpace=wrap;rounded=0;fontColor=#ffffff;" vertex="1" parent="1">
          <mxGeometry x="-1330" y="10" width="60" height="30" as="geometry" />
        </mxCell>
        <mxCell id="Xze04izMPhHI0RxyKO2f-3" value="" style="rounded=0;whiteSpace=wrap;html=1;" vertex="1" parent="1">
          <mxGeometry x="-1810" y="70" width="380" height="500" as="geometry" />
        </mxCell>
        <mxCell id="Xze04izMPhHI0RxyKO2f-4" value="Client" style="text;html=1;strokeColor=none;fillColor=none;align=center;verticalAlign=middle;whiteSpace=wrap;rounded=0;" vertex="1" parent="1">
          <mxGeometry x="-1660" y="80" width="60" height="30" as="geometry" />
        </mxCell>
        <mxCell id="Xze04izMPhHI0RxyKO2f-5" value="" style="rounded=0;whiteSpace=wrap;html=1;" vertex="1" parent="1">
          <mxGeometry x="-1180" y="70" width="430" height="500" as="geometry" />
        </mxCell>
        <mxCell id="Xze04izMPhHI0RxyKO2f-6" value="Server" style="text;html=1;strokeColor=none;fillColor=none;align=center;verticalAlign=middle;whiteSpace=wrap;rounded=0;" vertex="1" parent="1">
          <mxGeometry x="-1020" y="80" width="60" height="30" as="geometry" />
        </mxCell>
        <mxCell id="Xze04izMPhHI0RxyKO2f-8" value="Socket" style="rounded=0;whiteSpace=wrap;html=1;" vertex="1" parent="1">
          <mxGeometry x="-1500" y="140" width="70" height="30" as="geometry" />
        </mxCell>
        <mxCell id="Xze04izMPhHI0RxyKO2f-16" style="edgeStyle=orthogonalEdgeStyle;rounded=0;orthogonalLoop=1;jettySize=auto;html=1;exitX=0.5;exitY=1;exitDx=0;exitDy=0;entryX=0.5;entryY=1;entryDx=0;entryDy=0;" edge="1" parent="1" source="Xze04izMPhHI0RxyKO2f-9" target="Xze04izMPhHI0RxyKO2f-11">
          <mxGeometry relative="1" as="geometry" />
        </mxCell>
        <mxCell id="Xze04izMPhHI0RxyKO2f-9" value="port" style="whiteSpace=wrap;html=1;aspect=fixed;" vertex="1" parent="1">
          <mxGeometry x="-1430" y="142.5" width="25" height="25" as="geometry" />
        </mxCell>
        <mxCell id="Xze04izMPhHI0RxyKO2f-38" style="edgeStyle=orthogonalEdgeStyle;rounded=0;orthogonalLoop=1;jettySize=auto;html=1;exitX=0.5;exitY=0;exitDx=0;exitDy=0;entryX=0.5;entryY=0;entryDx=0;entryDy=0;" edge="1" parent="1" source="Xze04izMPhHI0RxyKO2f-10" target="Xze04izMPhHI0RxyKO2f-34">
          <mxGeometry relative="1" as="geometry" />
        </mxCell>
        <mxCell id="Xze04izMPhHI0RxyKO2f-10" value="ServerSocket" style="rounded=0;whiteSpace=wrap;html=1;" vertex="1" parent="1">
          <mxGeometry x="-1180" y="137.5" width="70" height="30" as="geometry" />
        </mxCell>
        <mxCell id="Xze04izMPhHI0RxyKO2f-14" style="edgeStyle=orthogonalEdgeStyle;rounded=0;orthogonalLoop=1;jettySize=auto;html=1;exitX=0.5;exitY=0;exitDx=0;exitDy=0;entryX=0.75;entryY=0;entryDx=0;entryDy=0;" edge="1" parent="1" source="Xze04izMPhHI0RxyKO2f-11" target="Xze04izMPhHI0RxyKO2f-9">
          <mxGeometry relative="1" as="geometry" />
        </mxCell>
        <mxCell id="Xze04izMPhHI0RxyKO2f-11" value="port" style="whiteSpace=wrap;html=1;aspect=fixed;" vertex="1" parent="1">
          <mxGeometry x="-1205" y="140" width="25" height="25" as="geometry" />
        </mxCell>
        <mxCell id="Xze04izMPhHI0RxyKO2f-30" style="edgeStyle=orthogonalEdgeStyle;rounded=0;orthogonalLoop=1;jettySize=auto;html=1;exitX=1;exitY=0.25;exitDx=0;exitDy=0;entryX=0;entryY=0.5;entryDx=0;entryDy=0;" edge="1" parent="1" source="Xze04izMPhHI0RxyKO2f-17" target="Xze04izMPhHI0RxyKO2f-27">
          <mxGeometry relative="1" as="geometry" />
        </mxCell>
        <mxCell id="Xze04izMPhHI0RxyKO2f-17" value="OutputStream" style="rounded=0;whiteSpace=wrap;html=1;fillColor=#dae8fc;strokeColor=#6c8ebf;" vertex="1" parent="1">
          <mxGeometry x="-1710" y="105" width="120" height="55" as="geometry" />
        </mxCell>
        <mxCell id="Xze04izMPhHI0RxyKO2f-25" style="edgeStyle=orthogonalEdgeStyle;rounded=0;orthogonalLoop=1;jettySize=auto;html=1;exitX=0;exitY=0.5;exitDx=0;exitDy=0;" edge="1" parent="1" source="Xze04izMPhHI0RxyKO2f-18" target="Xze04izMPhHI0RxyKO2f-24">
          <mxGeometry relative="1" as="geometry" />
        </mxCell>
        <mxCell id="Xze04izMPhHI0RxyKO2f-18" value="IntputStream" style="rounded=0;whiteSpace=wrap;html=1;fillColor=#dae8fc;strokeColor=#6c8ebf;" vertex="1" parent="1">
          <mxGeometry x="-1710" y="170" width="120" height="55" as="geometry" />
        </mxCell>
        <mxCell id="Xze04izMPhHI0RxyKO2f-20" value="" style="edgeStyle=orthogonalEdgeStyle;rounded=0;orthogonalLoop=1;jettySize=auto;html=1;" edge="1" parent="1" source="Xze04izMPhHI0RxyKO2f-19" target="Xze04izMPhHI0RxyKO2f-17">
          <mxGeometry relative="1" as="geometry" />
        </mxCell>
        <mxCell id="Xze04izMPhHI0RxyKO2f-19" value="System.in" style="text;html=1;strokeColor=none;fillColor=none;align=center;verticalAlign=middle;whiteSpace=wrap;rounded=0;" vertex="1" parent="1">
          <mxGeometry x="-1810" y="117.5" width="60" height="30" as="geometry" />
        </mxCell>
        <mxCell id="Xze04izMPhHI0RxyKO2f-24" value="Terminal/file&lt;br&gt;" style="text;html=1;align=center;verticalAlign=middle;resizable=0;points=[];autosize=1;strokeColor=none;fillColor=none;" vertex="1" parent="1">
          <mxGeometry x="-1820" y="187.5" width="80" height="20" as="geometry" />
        </mxCell>
        <mxCell id="Xze04izMPhHI0RxyKO2f-32" style="edgeStyle=orthogonalEdgeStyle;rounded=0;orthogonalLoop=1;jettySize=auto;html=1;exitX=1;exitY=0.5;exitDx=0;exitDy=0;entryX=0.75;entryY=0;entryDx=0;entryDy=0;" edge="1" parent="1" source="Xze04izMPhHI0RxyKO2f-27" target="Xze04izMPhHI0RxyKO2f-8">
          <mxGeometry relative="1" as="geometry" />
        </mxCell>
        <mxCell id="Xze04izMPhHI0RxyKO2f-27" value="buffer" style="rounded=1;whiteSpace=wrap;html=1;" vertex="1" parent="1">
          <mxGeometry x="-1550" y="105" width="90" height="30" as="geometry" />
        </mxCell>
        <mxCell id="Xze04izMPhHI0RxyKO2f-31" value="" style="edgeStyle=orthogonalEdgeStyle;rounded=0;orthogonalLoop=1;jettySize=auto;html=1;" edge="1" parent="1" source="Xze04izMPhHI0RxyKO2f-28" target="Xze04izMPhHI0RxyKO2f-18">
          <mxGeometry relative="1" as="geometry" />
        </mxCell>
        <mxCell id="Xze04izMPhHI0RxyKO2f-33" style="edgeStyle=orthogonalEdgeStyle;rounded=0;orthogonalLoop=1;jettySize=auto;html=1;exitX=1;exitY=0.5;exitDx=0;exitDy=0;entryX=0.75;entryY=1;entryDx=0;entryDy=0;" edge="1" parent="1" source="Xze04izMPhHI0RxyKO2f-28" target="Xze04izMPhHI0RxyKO2f-8">
          <mxGeometry relative="1" as="geometry" />
        </mxCell>
        <mxCell id="Xze04izMPhHI0RxyKO2f-28" value="buffer" style="rounded=1;whiteSpace=wrap;html=1;" vertex="1" parent="1">
          <mxGeometry x="-1560" y="182.5" width="90" height="30" as="geometry" />
        </mxCell>
        <mxCell id="Xze04izMPhHI0RxyKO2f-41" value="" style="edgeStyle=orthogonalEdgeStyle;rounded=0;orthogonalLoop=1;jettySize=auto;html=1;" edge="1" parent="1" source="Xze04izMPhHI0RxyKO2f-34" target="Xze04izMPhHI0RxyKO2f-36">
          <mxGeometry relative="1" as="geometry" />
        </mxCell>
        <mxCell id="Xze04izMPhHI0RxyKO2f-34" value="buffer" style="rounded=1;whiteSpace=wrap;html=1;" vertex="1" parent="1">
          <mxGeometry x="-1110" y="100" width="90" height="30" as="geometry" />
        </mxCell>
        <mxCell id="Xze04izMPhHI0RxyKO2f-44" style="edgeStyle=orthogonalEdgeStyle;rounded=0;orthogonalLoop=1;jettySize=auto;html=1;exitX=0.5;exitY=1;exitDx=0;exitDy=0;entryX=0.5;entryY=1;entryDx=0;entryDy=0;" edge="1" parent="1" source="Xze04izMPhHI0RxyKO2f-35" target="Xze04izMPhHI0RxyKO2f-10">
          <mxGeometry relative="1" as="geometry" />
        </mxCell>
        <mxCell id="Xze04izMPhHI0RxyKO2f-35" value="buffer" style="rounded=1;whiteSpace=wrap;html=1;" vertex="1" parent="1">
          <mxGeometry x="-1110" y="177.5" width="90" height="30" as="geometry" />
        </mxCell>
        <mxCell id="Xze04izMPhHI0RxyKO2f-48" value="" style="edgeStyle=orthogonalEdgeStyle;rounded=0;orthogonalLoop=1;jettySize=auto;html=1;" edge="1" parent="1" source="Xze04izMPhHI0RxyKO2f-36" target="Xze04izMPhHI0RxyKO2f-47">
          <mxGeometry relative="1" as="geometry" />
        </mxCell>
        <mxCell id="Xze04izMPhHI0RxyKO2f-36" value="InputStream" style="rounded=0;whiteSpace=wrap;html=1;fillColor=#dae8fc;strokeColor=#6c8ebf;" vertex="1" parent="1">
          <mxGeometry x="-990" y="87.5" width="120" height="55" as="geometry" />
        </mxCell>
        <mxCell id="Xze04izMPhHI0RxyKO2f-42" value="" style="edgeStyle=orthogonalEdgeStyle;rounded=0;orthogonalLoop=1;jettySize=auto;html=1;" edge="1" parent="1" source="Xze04izMPhHI0RxyKO2f-37" target="Xze04izMPhHI0RxyKO2f-35">
          <mxGeometry relative="1" as="geometry" />
        </mxCell>
        <mxCell id="Xze04izMPhHI0RxyKO2f-37" value="OutputStream" style="rounded=0;whiteSpace=wrap;html=1;fillColor=#dae8fc;strokeColor=#6c8ebf;" vertex="1" parent="1">
          <mxGeometry x="-990" y="165" width="120" height="55" as="geometry" />
        </mxCell>
        <mxCell id="Xze04izMPhHI0RxyKO2f-46" value="" style="edgeStyle=orthogonalEdgeStyle;rounded=0;orthogonalLoop=1;jettySize=auto;html=1;" edge="1" parent="1" source="Xze04izMPhHI0RxyKO2f-45" target="Xze04izMPhHI0RxyKO2f-37">
          <mxGeometry relative="1" as="geometry" />
        </mxCell>
        <mxCell id="Xze04izMPhHI0RxyKO2f-45" value="System.in" style="text;html=1;strokeColor=none;fillColor=none;align=center;verticalAlign=middle;whiteSpace=wrap;rounded=0;" vertex="1" parent="1">
          <mxGeometry x="-840" y="177.5" width="60" height="30" as="geometry" />
        </mxCell>
        <mxCell id="Xze04izMPhHI0RxyKO2f-47" value="Terminal/file&lt;br&gt;" style="text;html=1;align=center;verticalAlign=middle;resizable=0;points=[];autosize=1;strokeColor=none;fillColor=none;" vertex="1" parent="1">
          <mxGeometry x="-840" y="105" width="80" height="20" as="geometry" />
        </mxCell>
      </root>
    </mxGraphModel>
  </diagram>
</mxfile>
